<?xml version="1.0" encoding="UTF-8" standalone="no"?>
<!-- Created with Inkscape (http://www.inkscape.org/) -->

<svg
   width="160"
   height="160"
   viewBox="0 0 42.33333 42.333337"
   version="1.1"
   id="svg5"
   inkscape:version="1.2 (1:1.2.1+202207142221+cd75a1ee6d)"
   sodipodi:docname="mainLogo.svg"
   inkscape:export-filename="/mnt/sdc1/Dokumenty2/designs/brandLogoDesign/GDServerBanner.png"
   inkscape:export-xdpi="96"
   inkscape:export-ydpi="96"
   xmlns:inkscape="http://www.inkscape.org/namespaces/inkscape"
   xmlns:sodipodi="http://sodipodi.sourceforge.net/DTD/sodipodi-0.dtd"
   xmlns="http://www.w3.org/2000/svg"
   xmlns:svg="http://www.w3.org/2000/svg">
  <sodipodi:namedview
     id="namedview7"
     pagecolor="#282828"
     bordercolor="#eeeeee"
     borderopacity="1"
     inkscape:pageshadow="0"
     inkscape:pageopacity="0"
     inkscape:pagecheckerboard="0"
     inkscape:document-units="mm"
     showgrid="false"
     inkscape:zoom="4.2079203"
     inkscape:cx="72.838832"
     inkscape:cy="76.760008"
     inkscape:window-width="1600"
     inkscape:window-height="879"
     inkscape:window-x="1920"
     inkscape:window-y="278"
     inkscape:window-maximized="1"
     inkscape:current-layer="layer2"
     units="px"
     width="400px"
     inkscape:snap-global="true"
     inkscape:lockguides="true"
     height="500px"
     inkscape:showpageshadow="0"
     inkscape:deskcolor="#282828" />
  <defs
     id="defs2">
    <rect
       x="-1110.9584"
       y="506.54532"
       width="316.18768"
       height="393.62134"
       id="rect21114" />
    <rect
       x="925.11255"
       y="342.97226"
       width="165.40237"
       height="213.312"
       id="rect1125" />
    <rect
       x="146.53252"
       y="208.10304"
       width="300.05557"
       height="132.28259"
       id="rect932" />
    <rect
       x="925.11255"
       y="342.97226"
       width="165.40237"
       height="213.312"
       id="rect926" />
    <rect
       x="925.11255"
       y="342.97226"
       width="165.40237"
       height="213.312"
       id="rect33945" />
    <rect
       x="925.11255"
       y="342.97226"
       width="165.40237"
       height="213.312"
       id="rect50127" />
    <rect
       x="925.11255"
       y="342.97226"
       width="165.40237"
       height="213.312"
       id="rect50129" />
    <rect
       x="925.11255"
       y="342.97226"
       width="165.40237"
       height="213.312"
       id="rect50135" />
    <rect
       x="925.11255"
       y="342.97226"
       width="165.40237"
       height="213.312"
       id="rect1101" />
    <rect
       x="925.11255"
       y="342.97226"
       width="165.40237"
       height="213.312"
       id="rect1103" />
  </defs>
  <g
     inkscape:groupmode="layer"
     id="layer2"
     inkscape:label="Layer 2"
     style="display:inline;opacity:1"
     transform="translate(-92.327259,315.2147)">
    <path
       id="path1092"
       style="display:inline;opacity:0.454317;color:#000000;fill:#000000;fill-opacity:1;stroke-width:1.22048"
       d="m 285.287,-203.26051 -8.99216,15.07739 c 24.88968,14.84217 42.08138,35.79566 58.48484,58.6965 l 7.135,-5.11058 7.13501,5.11058 c 16.40347,-22.90084 33.59517,-43.85433 58.48483,-58.6965 l -8.99215,-15.07739 c -24.18805,14.42377 -41.52909,33.72951 -56.62769,53.81807 -15.09856,-20.08849 -32.4397,-39.39434 -56.62768,-53.81807 z m 3.65626,29.45664 v 71.61973 l 17.55586,17.125716 V -156.248 Z m 105.94285,0 -17.55587,17.55587 v 71.189576 l 17.55587,-17.125716 z"
       transform="matrix(0.30274337,0,0,0.30274337,10.382017,-250.00422)" />
    <path
       id="path1108"
       style="display:inline;opacity:1;color:#000000;fill:#ffffff;fill-opacity:1;stroke-width:1.22048"
       d="m 395.89662,-205.90626 4.49608,7.53955 4.49607,7.53784 c -24.88967,14.84216 -42.08137,35.79566 -58.48484,58.69649 l -7.135,-5.11057 -7.135,5.11057 c -16.40348,-22.90084 -33.59517,-43.85433 -58.48484,-58.69649 l 8.99215,-15.07739 c 24.18799,14.42373 41.52912,33.72957 56.62769,53.81806 15.0986,-20.08855 32.43963,-39.39429 56.62769,-53.81806 z m -3.65626,29.45664 v 71.61973 l -17.55587,17.125711 v -71.189581 z m -105.94285,0 17.55586,17.55586 v 71.189581 l -17.55586,-17.125711 z"
       transform="matrix(0.30274337,0,0,0.30274337,10.382017,-250.00422)" />
  </g>
</svg>
